<svg width="200" height="80" viewBox="0 0 200 80" fill="none" xmlns="http://www.w3.org/2000/svg">
<g clip-path="url(#clip0_4_45)">
<g clip-path="url(#clip1_4_45)">
<path d="M65.6075 138.88L157.078 5.12012H95.7275L4.2575 138.88H65.6075Z" fill="#00A9A2"/>
</g>
</g>
<path d="M67.7325 14.2066C68.0658 14.6133 68.3125 15.6233 68.4725 17.2366C68.6392 18.85 68.7225 21.3066 68.7225 24.6066V37.9166H59.3225V24.7166C59.3225 24.57 59.3225 23.8466 59.3225 22.5466C59.3225 21.2466 59.2292 20.4466 59.0425 20.1466C58.9358 20.0066 58.6692 19.9 58.2425 19.8266C57.8225 19.7466 57.3392 19.7066 56.7925 19.7066L55.8525 19.7666C54.8258 19.8066 53.7625 20.0466 52.6625 20.4866V37.9166H43.2525V4.91662L52.6625 4.53662V10.9666C52.6625 13.6066 52.5692 15.3666 52.3825 16.2466L52.4425 16.3066C54.9358 13.48 57.9258 12.0666 61.4125 12.0666C62.7325 12.0666 63.9692 12.25 65.1225 12.6166C66.2758 12.9833 67.1458 13.5133 67.7325 14.2066Z" fill="#2F7F7F"/>
<path d="M85.3975 38.6266C81.0042 38.6266 77.7142 37.5933 75.5275 35.5266C73.3475 33.4533 72.2575 30.1799 72.2575 25.7066C72.2575 23.2533 72.4875 21.0999 72.9475 19.2466C73.4008 17.3933 73.9608 16.0999 74.6275 15.3666C75.4675 14.4133 77.0142 13.6266 79.2675 13.0066C81.5208 12.3799 83.6408 12.0666 85.6275 12.0666C90.3542 12.0666 93.7242 13.0766 95.7375 15.0966C97.7575 17.1099 98.7675 20.3366 98.7675 24.7766C98.7675 29.5366 97.6875 33.0366 95.5275 35.2766C93.3608 37.5099 89.9842 38.6266 85.3975 38.6266ZM85.5675 32.1966C86.9942 32.1966 87.9275 31.6933 88.3675 30.6866C88.8075 29.6799 89.0275 27.8899 89.0275 25.3166C89.0275 23.5233 88.9375 22.1399 88.7575 21.1666C88.5775 20.1933 88.2375 19.4799 87.7375 19.0266C87.2442 18.5666 86.4842 18.3366 85.4575 18.3366C83.9908 18.3366 83.1475 18.4633 82.9275 18.7166C82.6342 18.9766 82.3975 19.7866 82.2175 21.1466C82.0308 22.4999 81.9375 23.9099 81.9375 25.3766C81.9375 27.8699 82.1842 29.6299 82.6775 30.6566C83.1708 31.6833 84.1342 32.1966 85.5675 32.1966Z" fill="#2F7F7F"/>
<path d="M119.643 12.0666C122.276 12.0666 124.373 12.9366 125.933 14.6766C127.493 16.4166 128.273 19.4533 128.273 23.7866C128.273 27.0133 127.963 29.6433 127.343 31.6766C126.716 33.7099 125.999 35.0566 125.193 35.7166C124.386 36.3766 122.983 36.9099 120.983 37.3166C118.983 37.7166 116.919 37.9166 114.793 37.9166C114.173 37.9166 113.129 37.8799 111.663 37.8066V45.6166L102.253 46.0066V12.6166H109.963L110.893 16.5266C111.846 15.1666 113.066 14.0833 114.553 13.2766C116.033 12.4699 117.729 12.0666 119.643 12.0666ZM117.433 31.2066C117.839 30.9133 118.136 30.0799 118.323 28.7066C118.503 27.3266 118.593 26.0166 118.593 24.7766C118.593 22.7166 118.336 21.1933 117.823 20.2066C117.309 19.2133 116.283 18.7166 114.743 18.7166C113.643 18.7166 112.616 18.8299 111.663 19.0566V31.2566L113.203 31.4266C113.683 31.4666 114.359 31.4866 115.233 31.4866C116.486 31.4866 117.219 31.3933 117.433 31.2066Z" fill="#2F7F7F"/>
<path d="M136.987 9.48661C135.741 9.48661 134.667 9.06327 133.767 8.21661C132.867 7.37661 132.417 6.36661 132.417 5.18661C132.417 4.01994 132.867 3.01327 133.767 2.16661C134.667 1.31994 135.741 0.896606 136.987 0.896606C138.234 0.896606 139.297 1.31994 140.177 2.16661C141.057 3.01327 141.497 4.01994 141.497 5.18661C141.497 6.36661 141.057 7.37661 140.177 8.21661C139.297 9.06327 138.234 9.48661 136.987 9.48661ZM132.257 37.9166V12.6166H141.657V37.9166H132.257Z" fill="#2F7F7F"/>
<path d="M159.167 9.75663C158.914 10.0166 158.787 10.8033 158.787 12.1166V12.6166H164.618V18.0066H158.787V37.9166H149.387V18.0066H145.257V13.1166L149.387 12.6166V11.7866C149.387 10.1733 149.607 8.6333 150.047 7.16663C150.487 5.69996 150.891 4.8233 151.257 4.53663C152.391 3.5833 154.811 3.10663 158.517 3.10663C160.531 3.10663 162.784 3.24996 165.278 3.53663C165.278 3.97663 165.214 4.85996 165.087 6.18663C164.954 7.50663 164.834 8.6233 164.727 9.53663L162.358 9.48663C160.418 9.48663 159.354 9.57663 159.167 9.75663Z" fill="#2F7F7F"/>
<path d="M187.792 12.6166H197.742L191.152 33.7866C189.866 37.8599 188.709 40.8232 187.682 42.6766C186.656 44.5299 185.629 45.8199 184.602 46.5466C184.016 46.9532 183.089 47.2666 181.822 47.4866C180.562 47.7066 179.199 47.8166 177.732 47.8166C175.532 47.8166 173.772 47.6132 172.452 47.2066C172.412 46.3266 172.449 45.2566 172.562 43.9966C172.669 42.7299 172.816 41.6566 173.002 40.7766C174.542 40.8499 176.046 40.8866 177.512 40.8866C178.612 40.8866 179.436 40.8699 179.982 40.8366C180.529 39.7699 181.042 38.6499 181.522 37.4766L177.732 37.2566L169.252 12.6166H179.212L183.612 30.3266L183.672 31.3766H183.832L187.792 12.6166Z" fill="#2F7F7F"/>
<g filter="url(#filter0_i_4_45)">
<path d="M18.1837 3H27.1021L31.432 9.46258H22.6429L18.1837 3Z" fill="#2F7F7F"/>
<path d="M5 22.3877L18.1836 3L22.6428 9.46258L13.9183 22.3877H5Z" fill="#2F7F7F"/>
<path d="M11.3335 31.6939L24.3879 12.3062L28.9763 18.898L20.2518 31.6939H11.3335Z" fill="#2F7F7F"/>
<path d="M17.6666 41.0001L30.8503 21.8708H39.7686L26.7142 41.0001H17.6666Z" fill="#2F7F7F"/>
<path d="M24.3877 12.3062H33.4353L39.7686 21.8708H30.8503L24.3877 12.3062Z" fill="#2F7F7F"/>
<path d="M5 22.3878H13.9183L15.7925 25.1021L11.3333 31.6939L5 22.3878Z" fill="#2F7F7F"/>
<path d="M13.4013 34.5374H22.1258L17.6666 41L13.4013 34.5374Z" fill="#2F7F7F"/>
</g>
<path d="M16.5272 60.2694H7.7672V63.3062H15.476V69.1754H7.7672V72.6794H16.5272V78.8698H0V54.0498H16.5272V60.2694ZM41.1428 78.8698H32.4412L29.1124 74.4314L26.6304 78.8698H18.0748L24.7032 68.4746L17.7244 59.1014H26.426L29.7548 63.5982L32.266 59.1014H40.8216L33.9888 69.263L41.1428 78.8698ZM53.3192 72.2414H55.188V78.8698H52.2388C46.8271 78.8698 44.1212 76.1737 44.1212 70.7814V65.5838H41.6684V59.1014H44.1212V54.3418H51.8884V59.1014H55.1296V65.5838H51.8884V70.9274C51.8884 71.3946 52.0052 71.7255 52.2388 71.9202C52.4529 72.1343 52.8131 72.2414 53.3192 72.2414ZM77.2924 68.825C77.2924 69.3506 77.2632 69.8567 77.2048 70.3434H64.678C64.7948 72.0565 65.5053 72.913 66.8096 72.913C67.6661 72.913 68.2793 72.5237 68.6492 71.745H76.8836C76.5916 73.1466 75.9979 74.4022 75.1024 75.5118C74.2069 76.6214 73.0779 77.4974 71.7152 78.1398C70.3525 78.7822 68.8536 79.1034 67.2184 79.1034C65.2523 79.1034 63.5003 78.6946 61.9624 77.877C60.444 77.0594 59.2565 75.8914 58.4 74.373C57.5435 72.8351 57.1152 71.0442 57.1152 69.0002C57.1152 66.9367 57.5435 65.1361 58.4 63.5982C59.2565 62.0798 60.444 60.9118 61.9624 60.0942C63.5003 59.2766 65.2523 58.8678 67.2184 58.8678C69.1651 58.8678 70.9073 59.2669 72.4452 60.065C73.9831 60.8826 75.1705 62.0311 76.0076 63.5106C76.8641 65.0095 77.2924 66.781 77.2924 68.825ZM64.7948 66.9562H69.4084C69.4084 66.2943 69.204 65.7979 68.7952 65.467C68.3669 65.1361 67.8413 64.9706 67.2184 64.9706C65.8363 64.9706 65.0284 65.6325 64.7948 66.9562ZM93.586 58.9554C95.8636 58.9554 97.6351 59.7146 98.9004 61.233C100.166 62.7514 100.798 64.8149 100.798 67.4234V78.8698H93.0604V68.387C93.0604 67.4526 92.8073 66.7129 92.3012 66.1678C91.8145 65.6227 91.1429 65.3502 90.2864 65.3502C89.4299 65.3502 88.7583 65.6227 88.2716 66.1678C87.7849 66.7129 87.5416 67.4526 87.5416 68.387V78.8698H79.7452V59.1014H87.5416V62.109C88.1451 61.1746 88.9529 60.4154 89.9652 59.8314C90.9775 59.2474 92.1844 58.9554 93.586 58.9554ZM112.975 79.1034C111.106 79.1034 109.451 78.8017 108.011 78.1982C106.57 77.5947 105.431 76.7577 104.594 75.687C103.757 74.6163 103.28 73.3997 103.164 72.037H110.61C110.707 72.621 110.96 73.0493 111.369 73.3218C111.778 73.6138 112.303 73.7598 112.946 73.7598C113.335 73.7598 113.646 73.6722 113.88 73.497C114.114 73.3218 114.23 73.1077 114.23 72.8546C114.23 72.4069 113.987 72.0857 113.5 71.891C113.014 71.7158 112.186 71.5114 111.018 71.2778C109.578 70.9858 108.4 70.6743 107.485 70.3434C106.57 70.0319 105.762 69.4771 105.062 68.679C104.38 67.8809 104.04 66.781 104.04 65.3794C104.04 64.1725 104.361 63.0726 105.003 62.0798C105.646 61.087 106.599 60.2986 107.865 59.7146C109.111 59.1501 110.639 58.8678 112.449 58.8678C115.116 58.8678 117.199 59.5199 118.698 60.8242C120.197 62.1285 121.102 63.8318 121.414 65.9342H114.522C114.406 65.4086 114.153 64.9998 113.763 64.7078C113.393 64.4158 112.897 64.2698 112.274 64.2698C111.865 64.2698 111.563 64.3379 111.369 64.4742C111.155 64.6299 111.048 64.8635 111.048 65.175C111.048 65.5643 111.291 65.8563 111.778 66.051C112.264 66.2651 113.043 66.4695 114.114 66.6642C115.554 66.9562 116.761 67.2774 117.734 67.6278C118.708 67.9782 119.564 68.5817 120.304 69.4382C121.024 70.2753 121.384 71.4433 121.384 72.9422C121.384 74.1102 121.044 75.1614 120.362 76.0958C119.681 77.0302 118.708 77.7699 117.442 78.315C116.158 78.8406 114.668 79.1034 112.975 79.1034ZM128.392 57.5246C127.03 57.5246 125.94 57.1645 125.122 56.4442C124.304 55.7239 123.896 54.809 123.896 53.6994C123.896 52.5898 124.304 51.6651 125.122 50.9254C125.94 50.1857 127.03 49.8158 128.392 49.8158C129.716 49.8158 130.787 50.1857 131.604 50.9254C132.422 51.6651 132.831 52.5898 132.831 53.6994C132.831 54.809 132.422 55.7239 131.604 56.4442C130.787 57.1645 129.716 57.5246 128.392 57.5246ZM124.45 59.1014H132.247V78.8698H124.45V59.1014ZM145.124 79.1034C143.138 79.1034 141.357 78.6946 139.78 77.877C138.184 77.0594 136.938 75.8914 136.043 74.373C135.147 72.8351 134.7 71.0442 134.7 69.0002C134.7 66.9367 135.147 65.1361 136.043 63.5982C136.938 62.0798 138.184 60.9118 139.78 60.0942C141.357 59.2766 143.138 58.8678 145.124 58.8678C147.11 58.8678 148.901 59.2766 150.497 60.0942C152.093 60.9118 153.339 62.0798 154.234 63.5982C155.13 65.1361 155.578 66.9367 155.578 69.0002C155.578 71.0442 155.13 72.8351 154.234 74.373C153.339 75.8914 152.093 77.0594 150.497 77.877C148.901 78.6946 147.11 79.1034 145.124 79.1034ZM145.124 72.3874C145.864 72.3874 146.477 72.1051 146.964 71.5406C147.45 70.9566 147.694 70.1098 147.694 69.0002C147.694 67.8711 147.45 67.0243 146.964 66.4598C146.477 65.8758 145.864 65.5838 145.124 65.5838C144.404 65.5838 143.8 65.8758 143.314 66.4598C142.827 67.0243 142.584 67.8711 142.584 69.0002C142.584 70.1098 142.817 70.9566 143.284 71.5406C143.771 72.1051 144.384 72.3874 145.124 72.3874ZM171.871 58.9554C174.129 58.9554 175.901 59.7146 177.186 61.233C178.451 62.7514 179.084 64.8149 179.084 67.4234V78.8698H171.346V68.387C171.346 67.4526 171.093 66.7129 170.586 66.1678C170.08 65.6227 169.409 65.3502 168.572 65.3502C167.715 65.3502 167.043 65.6227 166.557 66.1678C166.051 66.7129 165.798 67.4526 165.798 68.387V78.8698H158.03V59.1014H165.798V62.109C166.421 61.1746 167.238 60.4154 168.25 59.8314C169.263 59.2474 170.47 58.9554 171.871 58.9554ZM191.26 79.1034C189.391 79.1034 187.737 78.8017 186.296 78.1982C184.855 77.5947 183.717 76.7577 182.88 75.687C182.043 74.6163 181.566 73.3997 181.449 72.037H188.895C188.992 72.621 189.245 73.0493 189.654 73.3218C190.063 73.6138 190.579 73.7598 191.202 73.7598C191.61 73.7598 191.932 73.6722 192.165 73.497C192.399 73.3218 192.516 73.1077 192.516 72.8546C192.516 72.4069 192.272 72.0857 191.786 71.891C191.279 71.7158 190.442 71.5114 189.274 71.2778C187.853 70.9858 186.685 70.6743 185.77 70.3434C184.836 70.0319 184.028 69.4771 183.347 68.679C182.665 67.8809 182.325 66.781 182.325 65.3794C182.325 64.1725 182.646 63.0726 183.288 62.0798C183.931 61.087 184.875 60.2986 186.121 59.7146C187.386 59.1501 188.924 58.8678 190.734 58.8678C193.382 58.8678 195.465 59.5199 196.983 60.8242C198.482 62.1285 199.387 63.8318 199.699 65.9342H192.778C192.662 65.4086 192.418 64.9998 192.048 64.7078C191.679 64.4158 191.182 64.2698 190.559 64.2698C190.15 64.2698 189.839 64.3379 189.625 64.4742C189.43 64.6299 189.333 64.8635 189.333 65.175C189.333 65.5643 189.576 65.8563 190.063 66.051C190.549 66.2651 191.328 66.4695 192.399 66.6642C193.82 66.9562 195.027 67.2774 196.02 67.6278C196.993 67.9782 197.84 68.5817 198.56 69.4382C199.3 70.2753 199.67 71.4433 199.67 72.9422C199.67 74.1102 199.329 75.1614 198.648 76.0958C197.966 77.0302 196.993 77.7699 195.728 78.315C194.443 78.8406 192.954 79.1034 191.26 79.1034Z" fill="#333333"/>
<defs>
<filter id="filter0_i_4_45" x="5" y="3" width="35.7686" height="39.0001" filterUnits="userSpaceOnUse" color-interpolation-filters="sRGB">
<feFlood flood-opacity="0" result="BackgroundImageFix"/>
<feBlend mode="normal" in="SourceGraphic" in2="BackgroundImageFix" result="shape"/>
<feColorMatrix in="SourceAlpha" type="matrix" values="0 0 0 0 0 0 0 0 0 0 0 0 0 0 0 0 0 0 127 0" result="hardAlpha"/>
<feOffset dx="1" dy="1"/>
<feGaussianBlur stdDeviation="5"/>
<feComposite in2="hardAlpha" operator="arithmetic" k2="-1" k3="1"/>
<feColorMatrix type="matrix" values="0 0 0 0 0 0 0 0 0 0 0 0 0 0 0 0 0 0 0.25 0"/>
<feBlend mode="normal" in2="shape" result="effect1_innerShadow_4_45"/>
</filter>
<clipPath id="clip0_4_45">
<rect width="35.2112" height="38.4779" fill="white" transform="translate(4.2575 5.12012)"/>
</clipPath>
<clipPath id="clip1_4_45">
<rect width="241.22" height="263.6" fill="white" transform="translate(4.2575 5.12012)"/>
</clipPath>
</defs>
</svg>
