<svg xmlns="http://www.w3.org/2000/svg" width="159.982" height="27.155" viewBox="0 0 159.982 27.155">
  <g id="shopify-experts" transform="translate(843 -416.3)">
    <g id="Group_5737" data-name="Group 5737" transform="translate(-843 416.3)">
      <g id="Group_5736" data-name="Group 5736">
        <path id="Path_4043" data-name="Path 4043" d="M-822.559,421.469a.284.284,0,0,0-.236-.221c-.095-.016-2.128-.158-2.128-.158s-1.418-1.4-1.576-1.56a.662.662,0,0,0-.583-.079c-.016,0-.315.095-.788.252-.473-1.355-1.308-2.616-2.774-2.616h-.126a1.763,1.763,0,0,0-1.387-.788c-3.42,0-5.059,4.271-5.563,6.446-1.324.41-2.269.709-2.4.741-.741.236-.772.252-.867.961-.079.536-2.017,15.54-2.017,15.54l15.13,2.837,8.2-1.765C-819.659,441.044-822.527,421.6-822.559,421.469Zm-6.131-1.513c-.378.11-.8.252-1.277.394v-.284a6.224,6.224,0,0,0-.3-2.065C-829.525,418.112-829.021,418.964-828.69,419.956Zm-2.522-1.781a6.405,6.405,0,0,1,.347,2.3v.142c-.835.252-1.734.536-2.648.82A4.52,4.52,0,0,1-831.211,418.175Zm-1.024-.961a.81.81,0,0,1,.441.142c-1.1.52-2.269,1.812-2.774,4.413-.725.221-1.434.441-2.1.646C-836.065,420.445-834.694,417.214-832.236,417.214Z" transform="translate(843 -416.3)" fill="#95bf46"/>
        <path id="Path_4044" data-name="Path 4044" d="M-741.825,438.012c-.095-.016-2.128-.158-2.128-.158s-1.418-1.4-1.576-1.56a.311.311,0,0,0-.221-.095l-1.151,23.388,8.2-1.765s-2.884-19.448-2.9-19.59A.25.25,0,0,0-741.825,438.012Z" transform="translate(762.046 -433.064)" fill="#5f8e3e"/>
        <path id="Path_4045" data-name="Path 4045" d="M-811.422,474.21l-1.024,3.01a4.63,4.63,0,0,0-1.97-.473c-1.592,0-1.671.993-1.671,1.245,0,1.371,3.578,1.891,3.578,5.106,0,2.537-1.608,4.161-3.767,4.161a5.224,5.224,0,0,1-3.924-1.623l.693-2.3a5.01,5.01,0,0,0,2.522,1.166,1.013,1.013,0,0,0,1.056-1.024c0-1.8-2.931-1.875-2.931-4.807,0-2.474,1.781-4.87,5.358-4.87A4.628,4.628,0,0,1-811.422,474.21Z" transform="translate(823.793 -464.738)" fill="#fff"/>
      </g>
      <path id="s_2_" d="M-665.553,486.675c-.82-.441-1.245-.82-1.245-1.324,0-.646.583-1.072,1.5-1.072a5.339,5.339,0,0,1,2,.441l.741-2.285a4.76,4.76,0,0,0-2.711-.536c-2.821,0-4.76,1.608-4.76,3.877a3.587,3.587,0,0,0,2.128,2.963c.977.567,1.324.961,1.324,1.545,0,.615-.489,1.1-1.4,1.1a6.3,6.3,0,0,1-2.632-.693l-.788,2.285a6.091,6.091,0,0,0,3.168.788c2.9,0,4.98-1.418,4.98-3.987C-663.236,488.378-664.292,487.4-665.553,486.675Z" transform="translate(698.445 -471.561)" fill="#58595a"/>
      <path id="h_2_" d="M-606.842,456.175a4.37,4.37,0,0,0-3.4,1.7l-.047-.016,1.245-6.462h-3.215l-3.136,16.469h3.215l1.072-5.626c.426-2.128,1.513-3.436,2.537-3.436.725,0,1.009.489,1.009,1.2a7.217,7.217,0,0,1-.142,1.418l-1.214,6.446h3.215l1.261-6.651a11.847,11.847,0,0,0,.236-2.1C-604.194,457.263-605.156,456.175-606.842,456.175Z" transform="translate(651.27 -445.868)" fill="#58595a"/>
      <path id="o_2_" d="M-532.554,481.7c-3.877,0-6.446,3.5-6.446,7.407a4.208,4.208,0,0,0,4.444,4.507c3.814,0,6.367-3.4,6.367-7.407A4.179,4.179,0,0,0-532.554,481.7Zm-1.592,9.425c-1.1,0-1.56-.93-1.56-2.1,0-1.844.961-4.854,2.711-4.854,1.151,0,1.513.977,1.513,1.939C-531.482,488.1-532.444,491.125-534.146,491.125Z" transform="translate(586.911 -471.393)" fill="#58595a"/>
      <path id="p_2_" d="M-466.2,481.7a4.4,4.4,0,0,0-3.4,1.907h-.047l.189-1.734h-2.853c-.142,1.166-.394,2.947-.646,4.271l-2.238,11.789h3.215l.883-4.76h.063a3.721,3.721,0,0,0,1.891.426c3.782,0,6.257-3.877,6.257-7.8C-462.891,483.639-463.837,481.7-466.2,481.7Zm-3.089,9.472a2.006,2.006,0,0,1-1.324-.473l.536-3.01c.378-2,1.418-3.341,2.537-3.341.977,0,1.277.914,1.277,1.781C-466.248,488.209-467.493,491.172-469.29,491.172Z" transform="translate(533.166 -471.393)" fill="#58595a"/>
      <path id="dot_2_" d="M-377.756,452.3a1.843,1.843,0,0,0-1.844,1.875,1.483,1.483,0,0,0,1.513,1.608h.047a1.815,1.815,0,0,0,1.891-1.876A1.53,1.53,0,0,0-377.756,452.3Z" transform="translate(452.633 -446.626)" fill="#58595a"/>
      <path id="i_2_" d="M-396.5,494.726h3.231l2.191-11.426h-3.247Z" transform="translate(466.87 -472.741)" fill="#58595a"/>
      <path id="f_2_" d="M-350.7,455.064h-2.238l.11-.536c.189-1.1.835-2.08,1.907-2.08a3.489,3.489,0,0,1,1.024.158l.63-2.522a4.242,4.242,0,0,0-1.749-.284,4.81,4.81,0,0,0-3.152,1.072,6.139,6.139,0,0,0-1.875,3.641l-.095.536h-1.482l-.473,2.427h1.5l-1.7,9.015h3.215l1.718-9h2.222Z" transform="translate(434.69 -444.52)" fill="#58595a"/>
      <path id="y_2_" d="M-308.158,483.3s-2.017,5.075-2.916,7.849h-.047c-.063-.9-.788-7.849-.788-7.849H-315.3l1.939,10.481a.742.742,0,0,1-.063.536,5.666,5.666,0,0,1-1.749,1.939,7.066,7.066,0,0,1-1.828.914l.883,2.727a7.473,7.473,0,0,0,3.152-1.749,21.748,21.748,0,0,0,4.224-6.4l3.94-8.447Z" transform="translate(399.899 -472.741)" fill="#58595a"/>
    </g>
    <g id="Group_5739" data-name="Group 5739" transform="translate(-743.616 424.18)">
      <g id="Group_5738" data-name="Group 5738" transform="translate(0)">
        <path id="Path_4046" data-name="Path 4046" d="M-204.993,492.9a7.213,7.213,0,0,1-3.436.851c-2.821,0-3.972-2-3.972-4.429,0-3.325,2.3-7.423,5.831-7.423a2.759,2.759,0,0,1,3.042,2.821c0,2.916-3.089,3.814-6.966,3.767a5.816,5.816,0,0,0,.189,2.206,2.282,2.282,0,0,0,2.3,1.513,5.766,5.766,0,0,0,2.758-.725Zm-.331-8.117a1.349,1.349,0,0,0-1.513-1.371c-1.623,0-2.916,1.655-3.436,3.625,2.679.016,4.949-.441,4.949-2.254Z" transform="translate(212.4 -479.441)" fill="#58595a"/>
        <path id="Path_4047" data-name="Path 4047" d="M-157.382,483.416l.961,2.474c.252.757.441,1.34.662,1.875h.047c.426-.662.709-1.1,1.2-1.8l1.923-2.569h2.112l-4.476,5.611,2.348,5.784h-2.017l-.961-2.569c-.3-.772-.473-1.245-.709-2.017h-.063c-.331.567-.678,1.135-1.15,1.812l-2.049,2.774H-161.7l4.665-5.831-2.348-5.548Z" transform="translate(169.69 -480.705)" fill="#58595a"/>
        <path id="Path_4048" data-name="Path 4048" d="M-100.1,498.149l2.285-11.962c.252-1.434.473-2.963.63-4.05h1.7l-.3,2.049h.047a4.7,4.7,0,0,1,3.767-2.285c2.206,0,3.089,1.875,3.089,3.861,0,3.861-2.569,8.006-6.241,8.006a4.338,4.338,0,0,1-2.143-.473h-.047l-.914,4.854Zm3.1-6.43a2.891,2.891,0,0,0,1.844.567c2.537,0,4.3-3.767,4.3-6.351,0-1.182-.426-2.443-1.86-2.443-1.418,0-3.1,1.8-3.656,4.665Z" transform="translate(117.799 -479.441)" fill="#58595a"/>
        <path id="Path_4049" data-name="Path 4049" d="M-14.493,492.9a7.213,7.213,0,0,1-3.436.851c-2.821,0-3.972-2-3.972-4.429,0-3.325,2.3-7.423,5.831-7.423a2.759,2.759,0,0,1,3.042,2.821c0,2.916-3.089,3.814-6.966,3.767a5.816,5.816,0,0,0,.189,2.206,2.282,2.282,0,0,0,2.3,1.513,5.766,5.766,0,0,0,2.758-.725Zm-.331-8.117a1.349,1.349,0,0,0-1.513-1.371c-1.623,0-2.916,1.655-3.436,3.625,2.679.016,4.949-.441,4.949-2.254Z" transform="translate(51.923 -479.441)" fill="#58595a"/>
        <path id="Path_4050" data-name="Path 4050" d="M37.6,493.631l1.418-7.439c.284-1.481.441-2.963.536-3.956h1.655c-.063.725-.142,1.481-.252,2.38H41C41.745,483.1,42.88,482,44.3,482c.158,0,.347.016.489.016l-.378,1.875a3.177,3.177,0,0,0-.426-.016c-1.655,0-3.057,2.065-3.515,4.429l-1.009,5.327Z" transform="translate(1.801 -479.526)" fill="#58595a"/>
        <path id="Path_4051" data-name="Path 4051" d="M93.024,466.3l-.52,2.711h2.537l-.284,1.466H92.188L91.1,476.308a10.157,10.157,0,0,0-.2,1.7c0,.662.284,1.04.993,1.04a4.466,4.466,0,0,0,.851-.063l-.095,1.466a5.454,5.454,0,0,1-1.434.189,1.994,1.994,0,0,1-2.238-2.1,9.937,9.937,0,0,1,.236-2.049l1.15-6H88.8l.284-1.466h1.56l.394-2.049Z" transform="translate(-41.33 -466.3)" fill="#58595a"/>
        <path id="Path_4052" data-name="Path 4052" d="M124.136,491.724a4.482,4.482,0,0,0,2.238.662,1.9,1.9,0,0,0,2.065-1.891c0-.914-.426-1.513-1.466-2.143a3.467,3.467,0,0,1-1.875-2.868c0-1.954,1.623-3.483,3.956-3.483a4.415,4.415,0,0,1,2.191.52l-.536,1.434a3.744,3.744,0,0,0-1.749-.473,1.784,1.784,0,0,0-1.97,1.718c0,.867.536,1.371,1.418,1.923a3.645,3.645,0,0,1,1.954,2.995c0,2.427-1.844,3.719-4.145,3.719a4.756,4.756,0,0,1-2.616-.725Z" transform="translate(-70.646 -479.526)" fill="#58595a"/>
      </g>
    </g>
  </g>
</svg>
